<svg width="14" height="14" viewBox="0 0 14 14" fill="none" xmlns="http://www.w3.org/2000/svg">
<path d="M12.8333 6.16667H7.83333V1.16667C7.83333 0.945655 7.74553 0.733694 7.58925 0.577414C7.43297 0.421133 7.22101 0.333336 6.99999 0.333336C6.77898 0.333336 6.56702 0.421133 6.41074 0.577414C6.25446 0.733694 6.16666 0.945655 6.16666 1.16667V6.16667H1.16666C0.945648 6.16667 0.733686 6.25447 0.577406 6.41075C0.421126 6.56703 0.333328 6.77899 0.333328 7C0.333328 7.22102 0.421126 7.43298 0.577406 7.58926C0.733686 7.74554 0.945648 7.83333 1.16666 7.83333H6.16666V12.8333C6.16666 13.0543 6.25446 13.2663 6.41074 13.4226C6.56702 13.5789 6.77898 13.6667 6.99999 13.6667C7.22101 13.6667 7.43297 13.5789 7.58925 13.4226C7.74553 13.2663 7.83333 13.0543 7.83333 12.8333V7.83333H12.8333C13.0543 7.83333 13.2663 7.74554 13.4226 7.58926C13.5789 7.43298 13.6667 7.22102 13.6667 7C13.6667 6.77899 13.5789 6.56703 13.4226 6.41075C13.2663 6.25447 13.0543 6.16667 12.8333 6.16667Z" fill="#8B8B8B"/>
</svg>
