<svg width="20" height="24" viewBox="0 0 20 24" fill="none" xmlns="http://www.w3.org/2000/svg">
<path d="M17 13.3767V9.66666C16.9983 8.01364 16.4117 6.41454 15.344 5.15257C14.2763 3.89059 12.7965 3.04716 11.1666 2.77166V1.49999C11.1666 1.19058 11.0437 0.893829 10.8249 0.675037C10.6061 0.456245 10.3094 0.333328 9.99996 0.333328C9.69054 0.333328 9.39379 0.456245 9.175 0.675037C8.95621 0.893829 8.83329 1.19058 8.83329 1.49999V2.77166C7.20339 3.04716 5.72357 3.89059 4.65591 5.15257C3.58825 6.41454 3.00163 8.01364 2.99996 9.66666V13.3767C2.31915 13.6174 1.72946 14.0627 1.31172 14.6518C0.893984 15.2408 0.668655 15.9446 0.666626 16.6667V19C0.666626 19.3094 0.789543 19.6062 1.00833 19.825C1.22713 20.0437 1.52387 20.1667 1.83329 20.1667H5.49663C5.76529 21.1553 6.35179 22.028 7.16565 22.6502C7.97952 23.2724 8.9755 23.6095 9.99996 23.6095C11.0244 23.6095 12.0204 23.2724 12.8343 22.6502C13.6481 22.028 14.2346 21.1553 14.5033 20.1667H18.1666C18.476 20.1667 18.7728 20.0437 18.9916 19.825C19.2104 19.6062 19.3333 19.3094 19.3333 19V16.6667C19.3313 15.9446 19.1059 15.2408 18.6882 14.6518C18.2705 14.0627 17.6808 13.6174 17 13.3767ZM5.33329 9.66666C5.33329 8.42898 5.82496 7.242 6.70013 6.36683C7.5753 5.49166 8.76228 4.99999 9.99996 4.99999C11.2376 4.99999 12.4246 5.49166 13.2998 6.36683C14.175 7.242 14.6666 8.42898 14.6666 9.66666V13.1667H5.33329V9.66666ZM9.99996 21.3333C9.59276 21.3309 9.19329 21.2219 8.84126 21.0172C8.48923 20.8126 8.19689 20.5193 7.99329 20.1667H12.0066C11.803 20.5193 11.5107 20.8126 11.1587 21.0172C10.8066 21.2219 10.4072 21.3309 9.99996 21.3333ZM17 17.8333H2.99996V16.6667C2.99996 16.3572 3.12288 16.0605 3.34167 15.8417C3.56046 15.6229 3.85721 15.5 4.16663 15.5H15.8333C16.1427 15.5 16.4395 15.6229 16.6582 15.8417C16.877 16.0605 17 16.3572 17 16.6667V17.8333Z" fill="#717986"/>
</svg>
